<svg id="Layer_1" enable-background="new 0 0 512 512" height="512" viewBox="0 0 512 512" width="512" xmlns="http://www.w3.org/2000/svg"><g><path d="m497 62.83v296.78c0 26.29-21.32 47.61-47.61 47.61h-386.78c-26.29 0-47.61-21.32-47.61-47.61v-296.78c0-26.3 21.32-47.61 47.61-47.61h386.78c26.29 0 47.61 21.31 47.61 47.61z" fill="#00e4ef"/><path d="m497 62.83v296.78c0 26.29-21.32 47.61-47.61 47.61h-193.39v-392h193.39c26.29 0 47.61 21.31 47.61 47.61z" fill="#2ebeef"/><path d="m497 225.41v134.2c0 26.29-21.32 47.61-47.61 47.61h-386.78c-26.29 0-47.61-21.32-47.61-47.61v-92.71h105.22l64.34-64.34c5.86-5.86 15.36-5.86 21.21 0l36.32 36.32 13.91-13.91 57.93-57.93c5.85-5.86 15.35-5.86 21.21 0l58.37 58.37z" fill="#afea93"/><path d="m497 225.41v134.2c0 26.29-21.32 47.61-47.61 47.61h-193.39v-182.25l57.93-57.93c5.85-5.86 15.35-5.86 21.21 0l58.37 58.37z" fill="#00ec89"/><path d="m325.42 493.51h-138.84l20-89.56c1.53-6.86 7.61-11.73 14.64-11.73h69.56c7.03 0 13.11 4.87 14.64 11.73z" fill="#f4f1f1"/><path d="m325.42 493.51h-69.42v-101.29h34.78c7.03 0 13.11 4.87 14.64 11.73z" fill="#eceae7"/><g><g><path d="m449.39.22h-386.78c-34.52 0-62.61 28.09-62.61 62.61v296.78c0 34.52 28.09 62.61 62.61 62.61h386.78c34.52 0 62.61-28.09 62.61-62.61v-296.78c0-34.52-28.09-62.61-62.61-62.61zm32.61 334.39h-452v-271.78c0-17.98 14.63-32.61 32.61-32.61h386.78c17.98 0 32.61 14.63 32.61 32.61z" fill="#004e70"/></g></g><path d="m302.06 110.35c0 25.4-20.66 46.06-46.06 46.06s-46.06-20.66-46.06-46.06c0-25.39 20.66-46.05 46.06-46.05s46.06 20.66 46.06 46.05z" fill="#ffea29"/><path d="m374.57 496.78c0 8.29-6.71 15-15 15h-207.14c-8.29 0-15-6.71-15-15 0-8.28 6.71-15 15-15h207.14c8.29 0 15 6.72 15 15z" fill="#004e70"/><path d="m256 156.41v-92.11c25.4 0 46.06 20.66 46.06 46.05 0 25.4-20.66 46.06-46.06 46.06z" fill="#ffd400"/><g fill="#003547"><path d="m374.57 496.78c0 8.29-6.71 15-15 15h-103.57v-30h103.57c8.29 0 15 6.72 15 15z"/><path d="m512 62.83v296.78c0 34.52-28.09 62.61-62.61 62.61h-193.39v-87.61h226v-271.78c0-17.98-14.63-32.61-32.61-32.61h-193.39v-30h193.39c34.52 0 62.61 28.09 62.61 62.61z"/></g></g></svg>