<svg id="bold" enable-background="new 0 0 32 32" height="512" viewBox="0 0 32 32" width="512" xmlns="http://www.w3.org/2000/svg"><path d="m26 32h-20c-3.314 0-6-2.686-6-6v-20c0-3.314 2.686-6 6-6h20c3.314 0 6 2.686 6 6v20c0 3.314-2.686 6-6 6z" fill="#e3f8fa"/><path d="m23.805 22.862-1.693-1.693c.349-.527.555-1.157.555-1.835 0-1.838-1.495-3.333-3.333-3.333-1.839-.001-3.334 1.494-3.334 3.332s1.495 3.333 3.333 3.333c.678 0 1.308-.206 1.835-.555l1.693 1.693c.26.26.682.26.943 0s.261-.682.001-.942zm-4.472-1.529c-1.103 0-2-.897-2-2s.897-2 2-2 2 .897 2 2-.897 2-2 2z" fill="#8ce1eb"/><g fill="#26c6da"><path d="m20.667 8h-10.667c-1.105 0-2 .895-2 2s.895 2 2 2h10.667c1.105 0 2-.895 2-2s-.896-2-2-2zm-10.667 2.667c-.368 0-.667-.299-.667-.667s.299-.667.667-.667.667.298.667.667c0 .368-.299.667-.667.667zm2.667 0c-.369 0-.667-.299-.667-.667s.298-.667.667-.667c.368 0 .667.298.667.667-.001.368-.299.667-.667.667z"/><path d="m20.667 13.333h-10.667c-1.107 0-2 .893-2 2s.893 2 2 2h5.12c.747-1.573 2.353-2.667 4.213-2.667 1.253 0 2.387.493 3.227 1.3.073-.2.107-.413.107-.633 0-1.106-.894-2-2-2zm-10.667 2.667c-.367 0-.667-.3-.667-.667s.3-.667.667-.667.667.3.667.667-.3.667-.667.667zm2.667 0c-.367 0-.667-.3-.667-.667s.3-.667.667-.667.667.3.667.667-.301.667-.667.667z"/><path d="m14.667 19.333c0-.227.013-.447.053-.667h-4.72c-1.107 0-2 .893-2 2s.893 2 2 2h6.073c-.866-.846-1.406-2.026-1.406-3.333zm-4.667 2c-.367 0-.667-.3-.667-.667 0-.366.3-.666.667-.666s.667.3.667.667c0 .366-.3.666-.667.666zm2.667 0c-.367 0-.667-.3-.667-.667 0-.366.3-.666.667-.666s.667.3.667.667c-.001.366-.301.666-.667.666z"/></g></svg>